<svg width="322" height="204" viewBox="0 0 322 204" fill="none" xmlns="http://www.w3.org/2000/svg">
<g clip-path="url(#clip0_611_42412)">
<path d="M220.367 34.6116C221.329 39.8701 222.633 44.9314 223.125 50.0738C224.922 68.7073 219.504 85.1667 207.334 99.3534C198.669 109.556 186.86 116.586 173.763 119.338C160.632 122.237 147.767 120.886 135.609 115.094C116.207 105.853 104.391 90.4019 99.7264 69.5364C98.7528 65.194 98.5268 60.6197 98.4746 56.1439C98.4463 53.4242 99.4875 50.8023 101.374 48.8436C103.26 46.8849 105.84 45.7463 108.558 45.6735C114.353 45.4126 119.14 49.3839 119.65 55.2859C120.142 61.0023 120.67 66.655 122.715 72.0989C129.09 89.138 145.229 100.182 163.28 99.0345C178.967 98.0315 190.517 89.9265 197.314 75.8905C205.3 59.4138 203.254 43.6269 192.574 28.7735C189.572 24.5934 185.469 23.6774 180.88 22.9759C155.666 19.1726 131.425 22.9179 107.787 31.9621C86.0038 40.2991 66.405 52.3581 48.0986 66.6144C37.6949 74.6062 27.9172 83.3823 18.8512 92.8659C13.4502 98.5881 4.89097 97.6605 1.30965 91.1266C0.238101 89.0926 -0.17042 86.7742 0.141347 84.4962C0.453113 82.2183 1.46954 80.095 3.04815 78.4241C8.08402 73.2062 13.2474 68.1333 18.5904 63.246C33.3402 49.72 49.5075 37.8278 66.8107 27.7763C85.9748 16.6623 106.188 8.14561 127.925 3.51913C152.881 -1.83955 178.765 -1.05768 203.353 5.79759C229.726 13.0098 253.607 25.3529 275.79 41.1281C291.298 52.1436 305.826 64.3185 318.755 78.3371C322.162 82.0244 322.892 86.5001 320.847 90.5816C318.761 94.7617 314.571 97.0054 309.715 96.5068C306.817 96.2111 304.615 94.5588 302.674 92.547C290.049 79.437 276.132 67.6369 261.135 57.3266C248.705 48.7926 235.776 41.0933 221.833 35.1856C221.323 34.9595 220.79 34.7856 220.367 34.6116Z" fill="#152FA3"/>
<path d="M196.509 185.836C191.293 191.692 185.446 193.1 179.744 190.028C173.613 186.717 170.553 179.082 172.477 171.881C174.598 163.933 181.621 159.312 189.016 161.446C191.369 162.136 193.368 164.107 195.483 165.562C196.124 166.135 196.706 166.77 197.222 167.458V161.428H200.635V168.385C200.635 175.482 200.403 182.589 200.699 189.674C201.041 198.034 196.19 203.148 187.741 203.913C181.685 204.464 176.423 202.858 172.772 197.339C173.143 197.002 173.479 196.666 173.85 196.37C174.221 196.075 174.546 195.872 174.893 195.628C176.878 198.21 179.71 200.009 182.89 200.708C186.07 201.406 189.395 200.961 192.278 199.449C196.347 197.217 197.61 193.524 196.509 185.836ZM196.868 176.386C196.868 175.737 196.822 175.082 196.868 174.432C197.245 169.667 194.272 167.11 190.528 165.33C186.785 163.55 183.059 164.031 179.848 166.826C175.415 170.675 174.453 177.801 177.623 182.891C180.706 187.848 186.779 189.593 191.769 186.885C195.953 184.624 197.726 181.128 196.868 176.386Z" fill="#090F14"/>
<path d="M51.6277 177.922H26.7381C26.1586 184.822 33.5936 190.341 40.5012 188.08C42.1893 187.486 43.7347 186.546 45.0387 185.32C47.0728 183.453 46.9511 183.314 49.6748 184.433C47.7624 190.173 39.5509 193.379 32.5679 191.228C24.7446 188.822 20.2303 179.865 22.6758 171.713C23.217 169.795 24.1344 168.003 25.3745 166.443C26.6145 164.882 28.1525 163.585 29.8989 162.625C31.6452 161.665 33.5649 161.062 35.5464 160.852C37.5278 160.641 39.5312 160.827 41.44 161.399C49.5473 163.799 53.0706 172.902 51.6277 177.922ZM47.8319 174.693C47.806 171.903 46.6999 169.231 44.7461 167.24C42.7922 165.248 40.1427 164.092 37.3546 164.014C31.461 163.765 26.5411 168.617 26.4599 174.693H47.8319Z" fill="#1A33A3"/>
<path d="M214.995 149.7H218.658V167.817C219.411 166.942 219.817 166.443 220.274 165.939C223.033 162.634 226.539 160.843 230.868 160.935C234.64 161.011 237.306 162.854 238.703 166.397C239.117 167.246 239.374 168.163 239.462 169.104C239.525 176.461 239.496 183.824 239.496 191.28H236.089C236.089 186.062 236.124 180.844 236.089 175.656C236.104 173.847 235.959 172.041 235.654 170.258C234.658 165.162 230.7 163.081 225.884 164.982C223.744 165.785 221.905 167.232 220.622 169.124C219.338 171.016 218.672 173.259 218.716 175.545C218.716 180.62 218.706 185.691 218.687 190.758C218.648 190.934 218.586 191.104 218.501 191.263H215.024L214.995 149.7Z" fill="#0D1218"/>
<path d="M107.92 191.28H104.403C104.403 185.848 104.438 180.502 104.403 175.163C104.406 173.354 104.256 171.549 103.957 169.765C103.18 165.492 100.283 163.62 96.0523 164.518C91.8219 165.417 86.4847 170.096 86.9251 175.667C87.325 180.769 87.0063 185.923 87.0063 191.216H83.2627V161.457H86.6006V167.835C87.2613 167.133 87.6206 166.774 87.9509 166.391C91.0512 162.779 94.9686 160.883 99.7379 160.953C103.383 161.005 105.898 162.854 107.098 166.292C107.538 167.366 107.802 168.503 107.88 169.661C107.955 176.786 107.92 183.935 107.92 191.28Z" fill="#0D1218"/>
<path d="M275.588 187.72C276.468 186.433 276.984 185.674 277.604 184.775C281.023 187.361 284.709 189.036 289.032 188.735C289.823 188.695 290.608 188.584 291.379 188.404C294.607 187.616 296.16 186.01 296.27 183.43C296.369 181.076 295.186 179.76 291.762 178.717C288.731 177.789 285.63 177.088 282.605 176.148C279.963 175.325 277.593 174.09 277.32 170.844C277.013 167.266 278.288 164.466 281.435 162.617C286.679 159.556 294.584 160.657 299.063 165.185L297.36 167.295C293.575 164.171 289.397 163.144 284.894 164.501C283.435 165.036 282.206 166.06 281.417 167.4C280.009 169.846 280.983 172.2 283.666 173.151C286.511 174.16 289.461 174.821 292.387 175.661C293.359 175.928 294.317 176.246 295.256 176.612C297.823 177.644 299.793 179.238 299.996 182.242C300.205 185.372 299.127 187.964 296.421 189.68C292.364 192.254 287.896 192.376 283.463 191.106C280.803 190.352 278.358 188.938 275.588 187.72Z" fill="#0C1117"/>
<path d="M141.022 167.278C137.278 164.194 133.088 163.098 128.597 164.507C127.022 165.118 125.719 166.276 124.929 167.771C123.735 170.09 124.773 172.252 127.247 173.128C130.092 174.131 133.042 174.803 135.94 175.644C136.986 175.923 138.014 176.268 139.017 176.676C144.534 179.059 145.27 185.813 140.407 189.431C137.788 191.373 134.728 191.854 131.564 191.813C127.148 191.804 122.888 190.174 119.592 187.233L121.151 184.88C122.443 185.651 123.631 186.439 124.894 187.088C128.179 188.856 132.023 189.272 135.609 188.248C136.649 187.95 137.609 187.423 138.42 186.706C140.865 184.497 140.413 180.943 137.4 179.546C135.389 178.612 133.17 178.137 131.025 177.499C129.368 177.001 127.664 176.653 126.036 176.096C123.474 175.221 121.203 173.974 120.913 170.878C120.606 167.493 121.748 164.716 124.651 162.866C127.444 161.086 130.602 160.64 133.83 161.017C137.185 161.405 140.263 162.524 142.714 165.197L141.022 167.278Z" fill="#0B1016"/>
<path d="M254.981 164.414H250.965V161.341H254.981V151.271H258.828V161.33H265.614V164.356H258.828C258.828 171.348 258.77 178.137 258.857 184.932C258.886 187.17 260.729 188.491 263.111 188.138C264.426 187.868 265.724 187.523 266.999 187.106C267.301 187.912 267.614 188.77 267.985 189.761C265.293 191.36 262.099 191.888 259.037 191.239C256.464 190.7 255.05 188.544 255.033 185.506C254.998 179.349 255.033 173.186 255.033 167.029L254.981 164.414Z" fill="#0D1218"/>
<path d="M64.2205 191.263V150.604H67.9235V191.263H64.2205Z" fill="#0B1117"/>
<path d="M159.479 191.321H155.915V161.515H159.479V191.321Z" fill="#0E1419"/>
<path d="M155.886 149.642H159.438V155.12H155.886V149.642Z" fill="#0F151A"/>
</g>
<defs>
<clipPath id="clip0_611_42412">
<rect width="322" height="204" fill="white"/>
</clipPath>
</defs>
</svg>
