<?xml version="1.0" encoding="utf-8"?>
<!-- Generator: Adobe Illustrator 24.2.3, SVG Export Plug-In . SVG Version: 6.00 Build 0)  -->
<svg version="1.1" xmlns="http://www.w3.org/2000/svg" xmlns:xlink="http://www.w3.org/1999/xlink" x="0px" y="0px"
	 viewBox="0 0 830.5 505.7" style="enable-background:new 0 0 830.5 505.7;" xml:space="preserve">
<style type="text/css">
	.st0{fill:#F3F7FF;}
	.st1{fill:#666666;}
	.st2{fill:#05091E;}
	.st3{fill:#DBDBDB;}
	.st4{fill:#C1C1C1;}
	.st5{fill:#7C7C7C;}
	.st6{fill:#FFFFFF;}
	.st7{fill:#CC2525;}
	.st8{fill:#F7F7F7;}
	.st9{fill:#1C2B59;}
	.st10{fill:#50AD60;}
	.st11{fill:#232323;}
	.st12{fill:#DB9046;}
	.st13{fill:url(#SVGID_1_);}
	.st14{fill:url(#SVGID_2_);}
	.st15{fill:#D37B24;}
	.st16{fill:#0F0F0F;}
	.st17{fill:#F49C45;}
	.st18{fill:#3A3A3A;}
	.st19{fill:#4F4F4F;}
	.st20{fill:#3D9B58;}
	.st21{fill:url(#SVGID_3_);}
</style>
<g id="fbf6d903-b7ce-46c9-ac8b-20fb198ef49d">
	<path class="st0" d="M44.4,392.8c11.7,19.4,21.5,37.1,23.3,59.9c0.8,9.8,1,17.5,4.7,24.5h709c10.1-7.6,18.4-16.8,23.1-28.4
		c7.4-18.4,3.3-40.7-10.2-55.5c-10.4-11.3-25.8-18.7-31.9-32.6c-4.2-9.6-3.1-20.4-3.2-30.8c-0.4-31.7-11.9-62.3-32.6-86.3
		c-26.5-30.7-68.8-53.4-74.8-93.1c-1.5-10.1-0.4-20.4-1.3-30.6c-4-43-48.3-76.6-92.8-76c-25.4,0.3-49.6,9.7-74.5,14.5
		c-31.9,6.1-64.7,4.7-95.9-4.2c-30.8-8.8-59.2-24.7-90.3-32.5c-32.3-8.1-66.5-7.1-99.4-1.4c-33.9,5.9-68.1,17.6-92.2,41.5
		c-18.9,18.8-30,44-31.3,70.6c-1.1,28.2,8.1,60.4-10.7,81.9c-6.1,7-14.5,11.7-21.7,17.7c-22.7,19.1-31.5,50.5-28.6,79.5
		C16.1,340.5,29.3,367.7,44.4,392.8z"/>
	<path class="st1" d="M719.2,491H8.8c-1.3,0-2.3-1-2.3-2.3s1-2.3,2.3-2.3h710.4c1.3,0,2.3,1,2.3,2.3S720.5,491,719.2,491z"/>
	<path class="st2" d="M568.4,406.3H107.1c-7.1,0-12.8-5.7-12.8-12.8V132.7c0-7.1,5.7-12.8,12.8-12.8h465c7.1,0,12.8,5.7,12.8,12.8
		c0,0,0,0,0,0v257.1C584.9,398.9,577.5,406.3,568.4,406.3L568.4,406.3z"/>
	<path class="st3" d="M98.1,111h465c7.1,0,12.8,5.7,12.8,12.8v260.8c0,7.1-5.7,12.8-12.8,12.8l0,0h-465c-7.1,0-12.8-5.7-12.8-12.8
		l0,0V123.8C85.3,116.7,91,111,98.1,111z"/>
	<path class="st4" d="M563.7,111H97.6c-6.8,0-12.3,5.5-12.3,12.3v13.9H576v-13.9C576,116.5,570.4,111,563.7,111
		C563.7,111,563.7,111,563.7,111z"/>
	<path class="st5" d="M264.3,137.1H576v-13.9c0-6.8-5.5-12.3-12.3-12.3c0,0,0,0,0,0H291.8L264.3,137.1z"/>
	<path class="st6" d="M516.8,124.4c0,4-3.2,7.2-7.2,7.2c-4,0-7.2-3.2-7.2-7.2c0-4,3.2-7.2,7.2-7.2c0,0,0,0,0,0
		C513.6,117.2,516.8,120.4,516.8,124.4L516.8,124.4z"/>
	<path class="st2" d="M538.3,124.4c0,4-3.2,7.2-7.2,7.2c-4,0-7.2-3.2-7.2-7.2s3.2-7.2,7.2-7.2c0,0,0,0,0,0
		C535.1,117.2,538.3,120.4,538.3,124.4C538.3,124.4,538.3,124.4,538.3,124.4z"/>
	<path class="st7" d="M559.8,124.4c0,4-3.2,7.2-7.2,7.2c-4,0-7.2-3.2-7.2-7.2s3.2-7.2,7.2-7.2c0,0,0,0,0,0
		C556.6,117.2,559.8,120.4,559.8,124.4C559.8,124.4,559.8,124.4,559.8,124.4z"/>
	<rect x="118.5" y="150.6" class="st8" width="427.1" height="228.4"/>
	<path class="st6" d="M545.6,306.1c-2.2-0.9-4.5-1.7-6.8-2.3c-16.5-4.5-34.2-1.5-50.9-5c-18.7-4-34.6-15.7-52-23.6
		c-24.3-11-51.3-14.5-77.6-10.2c-25.3,4.3-49.7,15.8-75.3,14.4c-14.5-0.8-28.4-5.7-42.6-8.4c-18.7-3.6-38-3.3-56.6,0.6
		c-25.5,5.3-44.6,18.7-65.3,31.5v76h427.1V306.1z"/>
	<rect x="118.5" y="360.8" class="st2" width="427.1" height="18.3"/>
	<rect x="118.5" y="150.6" class="st2" width="427.1" height="18.3"/>
	<path class="st9" d="M668,181.5c-0.1,0-0.1,0-0.2,0c-2.2-0.5-3.9-2.1-4.6-4.2c-0.5-1.8-0.7-3.8-0.6-5.7c0-0.6,0.5-1.1,1.1-1.1
		c0,0,0.1,0,0.1,0c0.6,0,1.1,0.5,1.1,1.2c0,0,0,0,0,0c-0.1,1.6,0,3.3,0.5,4.9c0.4,1.3,1.4,2.4,2.8,2.7c0.6,0.1,1,0.7,0.9,1.3
		C669.1,181.1,668.6,181.5,668,181.5L668,181.5z"/>
	<path class="st10" d="M601,478c0,0,0.2-0.8,0.7-2.3C608.2,454,658,288.9,664.4,274c6.9-16,112.5-12.8,139.3-6.9
		c20.6,4.6,19.5,17.1,9.1,27.4c-4.6,4.6-11.4,13.7-11.4,13.7L758.1,475L601,478z"/>
	<path class="st11" d="M579.9,381.3l-32-139.3c0,0-9.1-29.7,32-38.8c34-7.5,127.9,0,127.9,0l-5.3,28.1L586.7,242l25.1,73.1
		L579.9,381.3z"/>
	<path class="st11" d="M704.4,398.7L776.7,275c0,0,17.8-25.7-21-46.9c-32-17.5-128.8-38.8-128.8-38.8l-2.7,28.6l111.1,44.6l-51,61
		L704.4,398.7z"/>
	<polygon class="st12" points="681.7,322.8 641.4,334.4 615.4,319.8 646.5,225.3 676.7,234.8 	"/>
	<path class="st12" d="M615.4,208.5c-9.4,30.2-5.2,61.7,18.6,66.1c23.8,4.4,56.9-14.6,61.6-40.2c4.7-25.6-10.8-49.8-34.5-54.2
		C637.2,175.8,625.2,176.7,615.4,208.5z"/>
	<linearGradient id="SVGID_1_" gradientUnits="userSpaceOnUse" x1="633.6891" y1="187.1307" x2="702.0019" y2="187.1307">
		<stop  offset="3.926918e-04" style="stop-color:#000000"/>
		<stop  offset="4.173001e-02" style="stop-color:#000000"/>
		<stop  offset="0.7357" style="stop-color:#000000"/>
	</linearGradient>
	<path class="st13" d="M652.5,158.5c4.5,2.2,13.6,1.2,18.3,2.9c3.5,1.3,2.5,7.2,6.2,7.7c3.7,0.5,6,3.3,7.4,6.6s8-3.8,10.4,6.3
		c7,3.2,6.5,12.7,6.9,15.6c0.5,2.9,0.1,9-2.9,8.7c3.2,2.2,1.2,4.3-1.4,7.1c-2.6,2.8-7.1,3.6-10.9,2.6c-3.8-1-6.9-3.6-9.4-6.5
		c-2.5-2.9-4.4-6.2-6.7-9.3c-3.6-5-8-9.3-13.9-11.6c-4.7-1.9-21.1-2.4-22.5-8.2C631.3,168.9,644.7,154.6,652.5,158.5z"/>
	<linearGradient id="SVGID_2_" gradientUnits="userSpaceOnUse" x1="590.1691" y1="250.7397" x2="699.2028" y2="250.7397">
		<stop  offset="3.926918e-04" style="stop-color:#000000"/>
		<stop  offset="4.173001e-02" style="stop-color:#000000"/>
		<stop  offset="0.7357" style="stop-color:#000000"/>
	</linearGradient>
	<path class="st14" d="M614.1,226.6c-1,2.5-1.8,5.8,0.3,7.4c1,0.6,2.1,0.9,3.2,0.9c6.7,0.3,13.6,1.1,19.6,4.1
		c8,4,12.4,9.7,21.2,11.7c5.4,1.3,10.5,3.1,16.6,1.4c3.8-2,8-4.7,10.7-9.5c6.5-6.7,9.8-8.3,13.5-5.5c-0.4,2.6,0,0,0,0
		c-0.5,2.4-0.1,0.3-0.8,2.7c-0.8,2.6-1.7,5.1-2.7,7.5c-7,17.3-19,32.3-34.7,43c-4.4,2.9-9.2,5.6-14.5,5.6s-10.9-3.2-11.8-8.4
		c-6.2,2.2-13.4,2.6-19.1-0.5c-5.8-3.1-9.6-10.3-7.5-16.5c-10.5,1.2-20.3-10.4-17.3-20.6c1.7-5.9,6.5-10.3,10.1-15.2
		c10.2-14.2,7.7-3.7,14.6-26.2c1-3.1,2.2-7.5,1.5,9.5C618.3,216.8,614.1,226.6,614.1,226.6L614.1,226.6L614.1,226.6L614.1,226.6z"/>
	<path class="st2" d="M640.5,213.4c-1.3,3.1-3.7,5-5.2,4.3c-1.5-0.7-1.7-3.7-0.4-6.8c1.3-3.1,3.7-5,5.2-4.3
		C641.7,207.3,641.9,210.4,640.5,213.4z"/>
	<path class="st2" d="M664.1,221.8c-1.3,3.1-3.7,5-5.2,4.3c-1.5-0.7-1.7-3.7-0.4-6.8c1.3-3.1,3.7-5,5.2-4.3
		C665.3,215.7,665.4,218.7,664.1,221.8z"/>
	<path class="st2" d="M641.2,238.2c-0.2,0-0.4,0-0.5-0.1c-2-0.6-3.8-1.7-5.3-3c-1.8-1.7-3.3-4.5-2.2-6.6c0.7-1.1,1.1-2.2,2.3-2.9
		l3.1-0.4c5-3,7.7-6.5,9.7-11.5c0.2-0.6,1-0.9,1.7-0.7c0.7,0.2,1,0.9,0.8,1.5c-2.2,5.4-6,9.9-10.4,11.7l-3.5,0.5
		c-0.9,0.4-1,1.9-1.5,2.6c-0.6,1.3,1,3.3,2,4.3c1.3,1.1,2.8,1.9,4.4,2.4c0.7,0.3,1,0.9,0.7,1.5C642.2,237.9,641.7,238.2,641.2,238.2
		L641.2,238.2z"/>
	<path class="st12" d="M695.3,254.9c-12.7,4.5-12.2-17.3-1.4-19.4C706.8,233,704.9,251.4,695.3,254.9z"/>
	<path class="st6" d="M642.7,254.2c-1.9,0-3.7-0.6-5.3-1.5c-0.5-0.3-0.7-1-0.4-1.6c0.3-0.5,1-0.7,1.6-0.4c2.6,1.8,6.1,1.6,8.6-0.3
		c0.5-0.4,1.2-0.3,1.6,0.2c0.4,0.5,0.3,1.2-0.2,1.6C646.8,253.5,644.8,254.2,642.7,254.2z"/>
	<path class="st11" d="M584.5,310.5l38.8-9.1c0,0-0.6,28,26.6,24.7c30.1-3.6,30.5-29.3,30.5-29.3s32.5,13.7,38.6,16.7
		c6.1,3,0.5,34.9,0.5,34.9L685,477.3H543.3L584.5,310.5z"/>
	<path class="st15" d="M694.6,250.9c-0.6,0-1.1-0.5-1.1-1.1c0-0.3,0.1-0.6,0.4-0.8c1.7-1.9,1.6-4.8-0.3-6.5
		c-0.2-0.2-0.4-0.3-0.6-0.5c-0.6-0.3-0.8-1-0.5-1.5s1-0.8,1.5-0.5c3.3,1.9,4.3,6.1,2.4,9.4c-0.3,0.4-0.6,0.9-0.9,1.2
		C695.2,250.8,694.9,250.9,694.6,250.9z"/>
	<path class="st16" d="M680.5,302.2c0,0-7.9,22.7-38.2,23.1c-27.5,0.4-22.1-23.4-22.1-23.4l-6,0.3c-0.5,10.1,2.4,20.4,8.3,25.7
		c9.8,8.8,29.5,7.8,40.7,2.4c8.2-4,16.2-10.6,19.8-16.4c1.6-2.5,3.3-4.9,5.2-7.2C683.6,304.1,680.5,302.2,680.5,302.2z"/>
	<path class="st16" d="M656.2,342.7c-1,0-1.9-0.1-2.8-0.3c-0.6-0.1-1-0.8-0.8-1.4c0.1-0.6,0.8-1,1.4-0.9c4.4,1,9-1.2,12.9-3.5
		c9.1-5.4,17.4-12,24.6-19.8c0.4-0.5,1.2-0.5,1.6-0.1c0.5,0.4,0.5,1.1,0.1,1.6c-7.3,7.9-15.8,14.7-25.1,20.2
		C664.5,340.7,660.4,342.7,656.2,342.7z"/>
	<path class="st17" d="M633.6,224c-0.2,1.7-3,2.8-6.3,2.4c-3.3-0.3-5.9-1.9-5.8-3.6s3-2.8,6.3-2.4
		C631.2,220.7,633.7,222.4,633.6,224z"/>
	<path class="st17" d="M668.9,236.5c-0.2,1.7-3.7,2.7-7.8,2.3s-7.4-2.1-7.3-3.7s3.7-2.7,7.8-2.3
		C665.9,233.2,669.1,234.8,668.9,236.5z"/>
	<path class="st18" d="M649,357.3c1.7,1.4,2,3.9,1.8,6.1c-0.8,8.9-7.8,16-10.2,24.6c-0.4,1.3-0.5,2.6-0.2,3.9
		c0.7,2.5,3.5,3.8,6.1,3.7s5-1.2,7.3-2.2c6.9-2.9,14.2-4.6,21.6-5.2c1.8-0.3,3.6-0.1,5.3,0.6c3.9,2,3.5,8,0.7,11.5
		c-2.7,3.4-6.9,5.4-10,8.6c-3.1,3.1-4.8,8.6-1.8,11.7c2,2.1,5.3,2.3,8.1,3.1c2.8,0.8,5.9,3.1,5.2,6c-0.4,1.1-1,2.2-2,2.9
		c-9.7,9.4-24.8,13.2-31.2,25.1c-1.2,2.3-2.4,5.2-4.9,5.9c-1.9,0.5-3.8-0.3-5.6-1.1c-6.2-2.8-12.5-5.7-18.7-8.5
		c-1.7-0.6-3.2-1.6-4.3-2.9c-0.9-1.4-1.4-3-1.5-4.7c-0.6-6.9,1.3-13.8,5.5-19.4c-1,1.4-16.7,2.2-18.5,1.8c-6.9-1.6-8.7-4.7-9.1-12.4
		c-0.5-8.7,3.2-19.5,8.4-26.6C607,381.7,639.1,348.6,649,357.3z"/>
	<path class="st19" d="M783.1,306.2l0.1-0.3C783.2,305.9,783.1,306.1,783.1,306.2z"/>
	<path class="st20" d="M737.5,475h20.6l43.4-166.7c0,0,6.9-9.1,11.4-13.7c10.3-10.3,11.4-22.8-9.1-27.4c-1.4-0.3-2.9-0.6-4.6-0.9
		c2.5,5.3,4.2,15.2-4.5,28.3c-9.1,13.7-11.7,12.8-12.7,16.3L737.5,475z"/>
	<path class="st2" d="M552.5,477.3l-125.6-93c0,0-18.3-6.5-59.4,19.5c-41.1,26-114.6,73.4-114.6,73.4l96.2,1.7l57.3-38.3l38.8,34.6
		L552.5,477.3z"/>
	<path class="st16" d="M578.2,370.7c-0.5,0-0.9-0.3-1.1-0.7c-5.1-12.6-8.7-32.7-10.9-46.7c-0.1-0.6,0.3-1.2,0.9-1.3
		c0.6-0.1,1.2,0.3,1.3,0.9c2.2,13.9,5.8,33.8,10.8,46.2c0.2,0.6,0,1.3-0.6,1.5C578.5,370.6,578.3,370.7,578.2,370.7z"/>
	<path class="st16" d="M573.9,393.4c-0.4,0-0.8-0.2-1-0.6c-2.7-5-4.3-10.5-4.7-16.2c0-0.6,0.4-1.2,1.1-1.2c0.6,0,1.2,0.4,1.2,1.1
		c0.4,5.3,1.9,10.5,4.4,15.2c0.3,0.6,0.1,1.2-0.5,1.5C574.3,393.3,574.1,393.4,573.9,393.4L573.9,393.4z"/>
	<path class="st16" d="M563.1,225.2c-0.6,0-1.1-0.5-1.1-1.1c0-0.2,0.1-0.5,0.2-0.7c3.2-4.4,8-7.3,13.3-8c0.6-0.1,1.2,0.4,1.3,1
		c0.1,0.6-0.4,1.2-1,1.3c-4.7,0.7-9,3.2-11.8,7.1C563.8,225.1,563.4,225.2,563.1,225.2z"/>
	<path class="st16" d="M765.4,253.4c-0.1,0-0.1,0-0.2,0c-0.6-0.1-1-0.7-1-1.3c0,0,0,0,0,0c0.6-4.5-1.5-8.9-5.4-11.2
		c-0.5-0.3-0.7-1-0.4-1.6s1-0.7,1.6-0.4l0,0c4.8,2.8,7.4,8.1,6.6,13.6C766.4,253,766,253.4,765.4,253.4z"/>
	<ellipse class="st6" cx="176.7" cy="196.3" rx="35.4" ry="11.4"/>
	<ellipse class="st6" cx="273.8" cy="186" rx="18.3" ry="5.7"/>
	<ellipse class="st6" cx="381.2" cy="204.3" rx="34.3" ry="8"/>
	<ellipse class="st6" cx="470.2" cy="186" rx="22.8" ry="8"/>
	<ellipse class="st6" cx="526.2" cy="210" rx="14.8" ry="6.9"/>
	<path class="st6" d="M157.3,239.7c0,2.5-7.2,4.6-16,4.6s-16-2-16-4.6c0-2.5,7.2-4.6,16-4.6S157.3,237.2,157.3,239.7z"/>
	<ellipse class="st6" cx="243" cy="212.3" rx="14.8" ry="4.6"/>
	<path class="st6" d="M353.8,180.3c0,2.5-5.1,4.6-11.4,4.6c-6.3,0-11.4-2-11.4-4.6s5.1-4.6,11.4-4.6
		C348.6,175.7,353.8,177.8,353.8,180.3z"/>
	<ellipse class="st6" cx="479.4" cy="224.9" rx="16" ry="5.7"/>
	<path class="st2" d="M810.6,479.5H54.5c-1.3,0-2.3-1-2.3-2.3c0-1.3,1-2.3,2.3-2.3h756.1c1.3,0,2.3,1,2.3,2.3
		C812.9,478.5,811.8,479.5,810.6,479.5z"/>
	<g id="fIhWsx.tif">
		
			<image style="overflow:visible;" width="750" height="170" id="Layer_0_1_" xlink:href="3AFC215D3745DD33.png"  transform="matrix(0.5306 0 0 0.5306 135.3486 220.0843)">
		</image>
	</g>
</g>
<g id="Layer_2">
	<linearGradient id="SVGID_3_" gradientUnits="userSpaceOnUse" x1="689.9901" y1="238.187" x2="689.9901" y2="214.3085">
		<stop  offset="0" style="stop-color:#FFFFFF;stop-opacity:0"/>
		<stop  offset="3.785473e-02" style="stop-color:#EAEAEA;stop-opacity:3.785473e-02"/>
		<stop  offset="0.146" style="stop-color:#B4B4B4;stop-opacity:0.146"/>
		<stop  offset="0.2582" style="stop-color:#848484;stop-opacity:0.2582"/>
		<stop  offset="0.372" style="stop-color:#5B5B5B;stop-opacity:0.372"/>
		<stop  offset="0.4878" style="stop-color:#3A3A3A;stop-opacity:0.4878"/>
		<stop  offset="0.6061" style="stop-color:#212121;stop-opacity:0.6061"/>
		<stop  offset="0.7281" style="stop-color:#0E0E0E;stop-opacity:0.7281"/>
		<stop  offset="0.8561" style="stop-color:#040404;stop-opacity:0.8561"/>
		<stop  offset="1" style="stop-color:#000000"/>
	</linearGradient>
	<path class="st21" d="M683.4,214.3v23.9l12.1-3.8c0,0,2.5-12.1-0.2-19.3C695.3,215.1,696,214.2,683.4,214.3z"/>
</g>
</svg>
